<svg xmlns="http://www.w3.org/2000/svg" width="512" height="512" viewBox="0 0 512 512">
  <rect width="512" height="512" fill="#4CAF50" rx="64" ry="64"/>
  <path d="M456 160c0-26.5-21.5-48-48-48H104c-26.5 0-48 21.5-48 48v192c0 26.5 21.5 48 48 48h80l96 96 96-96h32c26.5 0 48-21.5 48-48V160z" fill="#ffffff"/>
  <path d="M256 336c-44.1 0-80-35.9-80-80s35.9-80 80-80 80 35.9 80 80-35.9 80-80 80z" fill="#4CAF50"/>
  <path d="M256 196c-33.1 0-60 26.9-60 60s26.9 60 60 60 60-26.9 60-60-26.9-60-60-60zm0 100c-22.1 0-40-17.9-40-40s17.9-40 40-40 40 17.9 40 40-17.9 40-40 40z" fill="#ffffff"/>
  <path d="M256 236c-11 0-20 9-20 20s9 20 20 20 20-9 20-20-9-20-20-20z" fill="#4CAF50"/>
</svg>
